<svg xmlns="http://www.w3.org/2000/svg" viewBox="0 0 72 23" version="1" width="216" height="96"><rect x="0" y="9" width="1" height="1" fill="#47AD27"/><rect x="0" y="10" width="1" height="1" fill="#46AC26"/><rect x="0" y="11" width="1" height="1" fill="#46AC26"/><rect x="0" y="12" width="1" height="1" fill="#44AA24"/><rect x="0" y="13" width="1" height="1" fill="#4BB12B"/><rect x="0" y="14" width="1" height="1" fill="#4CB22C"/><rect x="0" y="15" width="1" height="1" fill="#45AB25"/><rect x="0" y="16" width="1" height="1" fill="#47AD27"/><rect x="0" y="17" width="1" height="1" fill="#48AE28"/><rect x="0" y="18" width="1" height="1" fill="#47AD27"/><rect x="0" y="19" width="1" height="1" fill="#47AD27"/><rect x="0" y="20" width="1" height="1" fill="#4BB12B"/><rect x="0" y="21" width="1" height="1" fill="#4CB22C"/><rect x="0" y="22" width="1" height="1" fill="#479627"/><rect x="1" y="9" width="1" height="1" fill="#45AB25"/><rect x="1" y="10" width="1" height="1" fill="#45AB25"/><rect x="1" y="11" width="1" height="1" fill="#45AB25"/><rect x="1" y="12" width="1" height="1" fill="#48AE28"/><rect x="1" y="13" width="1" height="1" fill="#49AF29"/><rect x="1" y="14" width="1" height="1" fill="#46AC26"/><rect x="1" y="15" width="1" height="1" fill="#48AE28"/><rect x="1" y="16" width="1" height="1" fill="#47AD27"/><rect x="1" y="17" width="1" height="1" fill="#44AA24"/><rect x="1" y="18" width="1" height="1" fill="#45AB25"/><rect x="1" y="19" width="1" height="1" fill="#4CB22C"/><rect x="1" y="20" width="1" height="1" fill="#4DB32D"/><rect x="1" y="21" width="1" height="1" fill="#49AF29"/><rect x="1" y="22" width="1" height="1" fill="#489728"/><rect x="2" y="9" width="1" height="1" fill="#4BB12B"/><rect x="2" y="10" width="1" height="1" fill="#4A992A"/><rect x="2" y="15" width="1" height="1" fill="#44AA24"/><rect x="2" y="16" width="1" height="1" fill="#499829"/><rect x="2" y="21" width="1" height="1" fill="#46AC26"/><rect x="2" y="22" width="1" height="1" fill="#459425"/><rect x="3" y="9" width="1" height="1" fill="#49AF29"/><rect x="3" y="10" width="1" height="1" fill="#4A992A"/><rect x="3" y="15" width="1" height="1" fill="#47AD27"/><rect x="3" y="16" width="1" height="1" fill="#4B9A2B"/><rect x="3" y="21" width="1" height="1" fill="#47AD27"/><rect x="3" y="22" width="1" height="1" fill="#4C9B2C"/><rect x="4" y="9" width="1" height="1" fill="#49AF29"/><rect x="4" y="10" width="1" height="1" fill="#4A992A"/><rect x="4" y="15" width="1" height="1" fill="#4AB02A"/><rect x="4" y="16" width="1" height="1" fill="#459425"/><rect x="4" y="21" width="1" height="1" fill="#45AB25"/><rect x="4" y="22" width="1" height="1" fill="#489728"/><rect x="5" y="9" width="1" height="1" fill="#48AE28"/><rect x="5" y="10" width="1" height="1" fill="#48AE28"/><rect x="5" y="11" width="1" height="1" fill="#4A992A"/><rect x="5" y="14" width="1" height="1" fill="#48AE28"/><rect x="5" y="15" width="1" height="1" fill="#4CB22C"/><rect x="5" y="16" width="1" height="1" fill="#48AE28"/><rect x="5" y="17" width="1" height="1" fill="#489728"/><rect x="5" y="20" width="1" height="1" fill="#47AD27"/><rect x="5" y="21" width="1" height="1" fill="#4DB32D"/><rect x="5" y="22" width="1" height="1" fill="#459425"/><rect x="6" y="4" width="1" height="1" fill="#13E60F"/><rect x="6" y="10" width="1" height="1" fill="#48AE28"/><rect x="6" y="11" width="1" height="1" fill="#4AB02A"/><rect x="6" y="12" width="1" height="1" fill="#46AC26"/><rect x="6" y="13" width="1" height="1" fill="#47AD27"/><rect x="6" y="14" width="1" height="1" fill="#48AE28"/><rect x="6" y="15" width="1" height="1" fill="#4CB22C"/><rect x="6" y="16" width="1" height="1" fill="#4DB32D"/><rect x="6" y="17" width="1" height="1" fill="#49AF29"/><rect x="6" y="18" width="1" height="1" fill="#4DB32D"/><rect x="6" y="19" width="1" height="1" fill="#46AC26"/><rect x="6" y="20" width="1" height="1" fill="#4DB32D"/><rect x="6" y="21" width="1" height="1" fill="#469526"/><rect x="7" y="0" width="1" height="1" fill="#FCFF21"/><rect x="7" y="3" width="1" height="1" fill="#13FD0F"/><rect x="7" y="4" width="1" height="1" fill="#14E710"/><rect x="7" y="11" width="1" height="1" fill="#4AB02A"/><rect x="7" y="12" width="1" height="1" fill="#46AC26"/><rect x="7" y="13" width="1" height="1" fill="#48AE28"/><rect x="7" y="14" width="1" height="1" fill="#489728"/><rect x="7" y="17" width="1" height="1" fill="#4CB22C"/><rect x="7" y="18" width="1" height="1" fill="#4BB12B"/><rect x="7" y="19" width="1" height="1" fill="#46AC26"/><rect x="7" y="20" width="1" height="1" fill="#489728"/><rect x="8" y="3" width="1" height="1" fill="#14FE10"/><rect x="8" y="4" width="1" height="1" fill="#15E811"/><rect x="8" y="8" width="1" height="1" fill="#FAFF1F"/><rect x="9" y="3" width="1" height="1" fill="#19FF15"/><rect x="9" y="4" width="1" height="1" fill="#19FF15"/><rect x="9" y="5" width="1" height="1" fill="#18EB14"/><rect x="9" y="7" width="1" height="1" fill="#F4FC19"/><rect x="9" y="8" width="1" height="1" fill="#FEEF1D"/><rect x="9" y="9" width="1" height="1" fill="#F9FF1E"/><rect x="9" y="15" width="1" height="1" fill="#FF9404"/><rect x="9" y="16" width="1" height="1" fill="#FF9505"/><rect x="9" y="17" width="1" height="1" fill="#FF9303"/><rect x="9" y="18" width="1" height="1" fill="#FF9303"/><rect x="9" y="19" width="1" height="1" fill="#FD8E00"/><rect x="9" y="20" width="1" height="1" fill="#E17F00"/><rect x="10" y="1" width="1" height="1" fill="#FBFF20"/><rect x="10" y="4" width="1" height="1" fill="#18FF14"/><rect x="10" y="5" width="1" height="1" fill="#16E912"/><rect x="10" y="8" width="1" height="1" fill="#F9FF1E"/><rect x="10" y="14" width="1" height="1" fill="#FF9101"/><rect x="10" y="15" width="1" height="1" fill="#FC8D00"/><rect x="10" y="16" width="1" height="1" fill="#FF9404"/><rect x="10" y="17" width="1" height="1" fill="#FB8C00"/><rect x="10" y="18" width="1" height="1" fill="#FF9505"/><rect x="10" y="19" width="1" height="1" fill="#FF9202"/><rect x="10" y="20" width="1" height="1" fill="#FF9505"/><rect x="10" y="21" width="1" height="1" fill="#E58303"/><rect x="11" y="0" width="1" height="1" fill="#F6FE1B"/><rect x="11" y="1" width="1" height="1" fill="#FDEE1C"/><rect x="11" y="2" width="1" height="1" fill="#F7FF1C"/><rect x="11" y="4" width="1" height="1" fill="#14FE10"/><rect x="11" y="5" width="1" height="1" fill="#17FF13"/><rect x="11" y="6" width="1" height="1" fill="#19EC15"/><rect x="11" y="13" width="1" height="1" fill="#FF9202"/><rect x="11" y="14" width="1" height="1" fill="#FF9202"/><rect x="11" y="15" width="1" height="1" fill="#FE8F00"/><rect x="11" y="16" width="1" height="1" fill="#C35902"/><rect x="11" y="17" width="1" height="1" fill="#C25801"/><rect x="11" y="18" width="1" height="1" fill="#C15700"/><rect x="11" y="19" width="1" height="1" fill="#BD5300"/><rect x="11" y="20" width="1" height="1" fill="#FF9000"/><rect x="11" y="21" width="1" height="1" fill="#FB8C00"/><rect x="11" y="22" width="1" height="1" fill="#E48202"/><rect x="12" y="1" width="1" height="1" fill="#FBFF20"/><rect x="12" y="5" width="1" height="1" fill="#14FE10"/><rect x="12" y="6" width="1" height="1" fill="#19FF15"/><rect x="12" y="7" width="1" height="1" fill="#19EC15"/><rect x="12" y="8" width="1" height="1" fill="#17FF13"/><rect x="12" y="9" width="1" height="1" fill="#19FF15"/><rect x="12" y="10" width="1" height="1" fill="#14FE10"/><rect x="12" y="11" width="1" height="1" fill="#17FF13"/><rect x="12" y="12" width="1" height="1" fill="#14FE10"/><rect x="12" y="13" width="1" height="1" fill="#FC8D00"/><rect x="12" y="14" width="1" height="1" fill="#C45A03"/><rect x="12" y="15" width="1" height="1" fill="#C35902"/><rect x="12" y="16" width="1" height="1" fill="#FF9303"/><rect x="12" y="17" width="1" height="1" fill="#FF9202"/><rect x="12" y="18" width="1" height="1" fill="#FF9404"/><rect x="12" y="19" width="1" height="1" fill="#FE8F00"/><rect x="12" y="20" width="1" height="1" fill="#C55B04"/><rect x="12" y="21" width="1" height="1" fill="#C25801"/><rect x="12" y="22" width="1" height="1" fill="#E28000"/><rect x="13" y="6" width="1" height="1" fill="#16FF12"/><rect x="13" y="7" width="1" height="1" fill="#16FF12"/><rect x="13" y="8" width="1" height="1" fill="#15FF11"/><rect x="13" y="9" width="1" height="1" fill="#17FF13"/><rect x="13" y="10" width="1" height="1" fill="#17FF13"/><rect x="13" y="11" width="1" height="1" fill="#15FF11"/><rect x="13" y="12" width="1" height="1" fill="#15FF11"/><rect x="13" y="13" width="1" height="1" fill="#C25801"/><rect x="13" y="14" width="1" height="1" fill="#FD8E00"/><rect x="13" y="15" width="1" height="1" fill="#FB8C00"/><rect x="13" y="16" width="1" height="1" fill="#FF9000"/><rect x="13" y="17" width="1" height="1" fill="#FF9303"/><rect x="13" y="18" width="1" height="1" fill="#FE8F00"/><rect x="13" y="19" width="1" height="1" fill="#FF9404"/><rect x="13" y="20" width="1" height="1" fill="#FF9101"/><rect x="13" y="21" width="1" height="1" fill="#FC8D00"/><rect x="13" y="22" width="1" height="1" fill="#B05001"/><rect x="14" y="5" width="1" height="1" fill="#16FF12"/><rect x="14" y="6" width="1" height="1" fill="#13FD0F"/><rect x="14" y="7" width="1" height="1" fill="#16E912"/><rect x="14" y="13" width="1" height="1" fill="#FC8D00"/><rect x="14" y="14" width="1" height="1" fill="#FF9404"/><rect x="14" y="15" width="1" height="1" fill="#FF9505"/><rect x="14" y="16" width="1" height="1" fill="#FD8E00"/><rect x="14" y="17" width="1" height="1" fill="#FF9000"/><rect x="14" y="18" width="1" height="1" fill="#FE8F00"/><rect x="14" y="19" width="1" height="1" fill="#FF9101"/><rect x="14" y="20" width="1" height="1" fill="#FF9101"/><rect x="14" y="21" width="1" height="1" fill="#FF9101"/><rect x="14" y="22" width="1" height="1" fill="#E38101"/><rect x="15" y="3" width="1" height="1" fill="#FAFF1F"/><rect x="15" y="5" width="1" height="1" fill="#16FF12"/><rect x="15" y="6" width="1" height="1" fill="#14E710"/><rect x="15" y="14" width="1" height="1" fill="#FD8E00"/><rect x="15" y="15" width="1" height="1" fill="#FF9505"/><rect x="15" y="16" width="1" height="1" fill="#FF9000"/><rect x="15" y="17" width="1" height="1" fill="#FF9303"/><rect x="15" y="18" width="1" height="1" fill="#FC8D00"/><rect x="15" y="19" width="1" height="1" fill="#FD8E00"/><rect x="15" y="20" width="1" height="1" fill="#FF9202"/><rect x="15" y="21" width="1" height="1" fill="#E58303"/><rect x="16" y="5" width="1" height="1" fill="#11FB0D"/><rect x="16" y="6" width="1" height="1" fill="#16E912"/><rect x="16" y="9" width="1" height="1" fill="#F7FF1C"/><rect x="16" y="15" width="1" height="1" fill="#FF9202"/><rect x="16" y="16" width="1" height="1" fill="#FF9000"/><rect x="16" y="17" width="1" height="1" fill="#FE8F00"/><rect x="16" y="18" width="1" height="1" fill="#FF9202"/><rect x="16" y="19" width="1" height="1" fill="#FF9101"/><rect x="16" y="20" width="1" height="1" fill="#E68404"/><rect x="17" y="5" width="1" height="1" fill="#16FF12"/><rect x="17" y="6" width="1" height="1" fill="#15E811"/><rect x="18" y="6" width="1" height="1" fill="#16FF12"/><rect x="18" y="7" width="1" height="1" fill="#16E912"/><rect x="18" y="13" width="1" height="1" fill="#45AB25"/><rect x="18" y="14" width="1" height="1" fill="#479627"/><rect x="19" y="4" width="1" height="1" fill="#F5FD1A"/><rect x="19" y="7" width="1" height="1" fill="#14FE10"/><rect x="19" y="13" width="1" height="1" fill="#46AC26"/><rect x="19" y="14" width="1" height="1" fill="#4C9B2C"/><rect x="20" y="3" width="1" height="1" fill="#F6FE1B"/><rect x="20" y="4" width="1" height="1" fill="#FEEF1D"/><rect x="20" y="5" width="1" height="1" fill="#F4FC19"/><rect x="20" y="9" width="1" height="1" fill="#44AA24"/><rect x="20" y="10" width="1" height="1" fill="#46AC26"/><rect x="20" y="11" width="1" height="1" fill="#49AF29"/><rect x="20" y="12" width="1" height="1" fill="#4CB22C"/><rect x="20" y="13" width="1" height="1" fill="#4BB12B"/><rect x="20" y="14" width="1" height="1" fill="#46AC26"/><rect x="20" y="15" width="1" height="1" fill="#45AB25"/><rect x="20" y="16" width="1" height="1" fill="#48AE28"/><rect x="20" y="17" width="1" height="1" fill="#46AC26"/><rect x="20" y="18" width="1" height="1" fill="#4BB12B"/><rect x="20" y="19" width="1" height="1" fill="#47AD27"/><rect x="20" y="20" width="1" height="1" fill="#47AD27"/><rect x="20" y="21" width="1" height="1" fill="#479627"/><rect x="21" y="4" width="1" height="1" fill="#F4FC19"/><rect x="21" y="9" width="1" height="1" fill="#4BB12B"/><rect x="21" y="10" width="1" height="1" fill="#4AB02A"/><rect x="21" y="11" width="1" height="1" fill="#47AD27"/><rect x="21" y="12" width="1" height="1" fill="#48AE28"/><rect x="21" y="13" width="1" height="1" fill="#44AA24"/><rect x="21" y="14" width="1" height="1" fill="#4BB12B"/><rect x="21" y="15" width="1" height="1" fill="#4BB12B"/><rect x="21" y="16" width="1" height="1" fill="#4BB12B"/><rect x="21" y="17" width="1" height="1" fill="#4CB22C"/><rect x="21" y="18" width="1" height="1" fill="#4DB32D"/><rect x="21" y="19" width="1" height="1" fill="#4BB12B"/><rect x="21" y="20" width="1" height="1" fill="#4AB02A"/><rect x="21" y="21" width="1" height="1" fill="#47AD27"/><rect x="21" y="22" width="1" height="1" fill="#499829"/><rect x="22" y="13" width="1" height="1" fill="#4AB02A"/><rect x="22" y="14" width="1" height="1" fill="#469526"/><rect x="22" y="21" width="1" height="1" fill="#45AB25"/><rect x="22" y="22" width="1" height="1" fill="#4B9A2B"/><rect x="23" y="13" width="1" height="1" fill="#4AB02A"/><rect x="23" y="14" width="1" height="1" fill="#489728"/><rect x="23" y="20" width="1" height="1" fill="#4AB02A"/><rect x="23" y="21" width="1" height="1" fill="#4CB22C"/><rect x="23" y="22" width="1" height="1" fill="#479627"/><rect x="24" y="20" width="1" height="1" fill="#49AF29"/><rect x="24" y="21" width="1" height="1" fill="#489728"/><rect x="26" y="16" width="1" height="1" fill="#4BB12B"/><rect x="26" y="17" width="1" height="1" fill="#45AB25"/><rect x="26" y="18" width="1" height="1" fill="#49AF29"/><rect x="26" y="19" width="1" height="1" fill="#49AF29"/><rect x="26" y="20" width="1" height="1" fill="#47AD27"/><rect x="27" y="15" width="1" height="1" fill="#48AE28"/><rect x="27" y="16" width="1" height="1" fill="#45AB25"/><rect x="27" y="17" width="1" height="1" fill="#4DB32D"/><rect x="27" y="18" width="1" height="1" fill="#46AC26"/><rect x="27" y="19" width="1" height="1" fill="#46AC26"/><rect x="27" y="20" width="1" height="1" fill="#48AE28"/><rect x="27" y="21" width="1" height="1" fill="#489728"/><rect x="28" y="14" width="1" height="1" fill="#49AF29"/><rect x="28" y="15" width="1" height="1" fill="#49AF29"/><rect x="28" y="16" width="1" height="1" fill="#479627"/><rect x="28" y="20" width="1" height="1" fill="#46AC26"/><rect x="28" y="21" width="1" height="1" fill="#4CB22C"/><rect x="28" y="22" width="1" height="1" fill="#4B9A2B"/><rect x="29" y="14" width="1" height="1" fill="#46AC26"/><rect x="29" y="15" width="1" height="1" fill="#489728"/><rect x="29" y="21" width="1" height="1" fill="#47AD27"/><rect x="29" y="22" width="1" height="1" fill="#4C9B2C"/><rect x="30" y="14" width="1" height="1" fill="#47AD27"/><rect x="30" y="15" width="1" height="1" fill="#489728"/><rect x="30" y="21" width="1" height="1" fill="#47AD27"/><rect x="30" y="22" width="1" height="1" fill="#499829"/><rect x="31" y="14" width="1" height="1" fill="#47AD27"/><rect x="31" y="15" width="1" height="1" fill="#48AE28"/><rect x="31" y="16" width="1" height="1" fill="#489728"/><rect x="31" y="20" width="1" height="1" fill="#4AB02A"/><rect x="31" y="21" width="1" height="1" fill="#4BB12B"/><rect x="31" y="22" width="1" height="1" fill="#4C9B2C"/><rect x="32" y="15" width="1" height="1" fill="#46AC26"/><rect x="32" y="16" width="1" height="1" fill="#4CB22C"/><rect x="32" y="17" width="1" height="1" fill="#48AE28"/><rect x="32" y="18" width="1" height="1" fill="#49AF29"/><rect x="32" y="19" width="1" height="1" fill="#45AB25"/><rect x="32" y="20" width="1" height="1" fill="#45AB25"/><rect x="32" y="21" width="1" height="1" fill="#459425"/><rect x="33" y="16" width="1" height="1" fill="#4DB32D"/><rect x="33" y="17" width="1" height="1" fill="#45AB25"/><rect x="33" y="18" width="1" height="1" fill="#44AA24"/><rect x="33" y="19" width="1" height="1" fill="#44AA24"/><rect x="33" y="20" width="1" height="1" fill="#48AE28"/><rect x="33" y="21" width="1" height="1" fill="#4AB02A"/><rect x="33" y="22" width="1" height="1" fill="#469526"/><rect x="34" y="20" width="1" height="1" fill="#4AB02A"/><rect x="34" y="21" width="1" height="1" fill="#47AD27"/><rect x="34" y="22" width="1" height="1" fill="#4B9A2B"/><rect x="35" y="21" width="1" height="1" fill="#45AB25"/><rect x="35" y="22" width="1" height="1" fill="#4C9B2C"/><rect x="37" y="14" width="1" height="1" fill="#4CB22C"/><rect x="37" y="15" width="1" height="1" fill="#45AB25"/><rect x="37" y="16" width="1" height="1" fill="#4BB12B"/><rect x="37" y="17" width="1" height="1" fill="#48AE28"/><rect x="37" y="18" width="1" height="1" fill="#45AB25"/><rect x="37" y="19" width="1" height="1" fill="#47AD27"/><rect x="37" y="20" width="1" height="1" fill="#47AD27"/><rect x="37" y="21" width="1" height="1" fill="#48AE28"/><rect x="37" y="22" width="1" height="1" fill="#4B9A2B"/><rect x="38" y="14" width="1" height="1" fill="#4BB12B"/><rect x="38" y="15" width="1" height="1" fill="#47AD27"/><rect x="38" y="16" width="1" height="1" fill="#4BB12B"/><rect x="38" y="17" width="1" height="1" fill="#49AF29"/><rect x="38" y="18" width="1" height="1" fill="#4CB22C"/><rect x="38" y="19" width="1" height="1" fill="#4DB32D"/><rect x="38" y="20" width="1" height="1" fill="#4BB12B"/><rect x="38" y="21" width="1" height="1" fill="#4BB12B"/><rect x="38" y="22" width="1" height="1" fill="#4A992A"/><rect x="39" y="15" width="1" height="1" fill="#47AD27"/><rect x="39" y="16" width="1" height="1" fill="#4C9B2C"/><rect x="40" y="14" width="1" height="1" fill="#48AE28"/><rect x="40" y="15" width="1" height="1" fill="#4A992A"/><rect x="41" y="14" width="1" height="1" fill="#4CB22C"/><rect x="41" y="15" width="1" height="1" fill="#4A992A"/><rect x="42" y="14" width="1" height="1" fill="#46AC26"/><rect x="42" y="15" width="1" height="1" fill="#479627"/><rect x="43" y="14" width="1" height="1" fill="#49AF29"/><rect x="43" y="15" width="1" height="1" fill="#45AB25"/><rect x="43" y="16" width="1" height="1" fill="#46AC26"/><rect x="43" y="17" width="1" height="1" fill="#48AE28"/><rect x="43" y="18" width="1" height="1" fill="#49AF29"/><rect x="43" y="19" width="1" height="1" fill="#49AF29"/><rect x="43" y="20" width="1" height="1" fill="#4BB12B"/><rect x="43" y="21" width="1" height="1" fill="#48AE28"/><rect x="43" y="22" width="1" height="1" fill="#449324"/><rect x="44" y="15" width="1" height="1" fill="#48AE28"/><rect x="44" y="16" width="1" height="1" fill="#49AF29"/><rect x="44" y="17" width="1" height="1" fill="#48AE28"/><rect x="44" y="18" width="1" height="1" fill="#49AF29"/><rect x="44" y="19" width="1" height="1" fill="#44AA24"/><rect x="44" y="20" width="1" height="1" fill="#48AE28"/><rect x="44" y="21" width="1" height="1" fill="#4BB12B"/><rect x="44" y="22" width="1" height="1" fill="#4B9A2B"/><rect x="47" y="11" width="1" height="1" fill="#4AB02A"/><rect x="47" y="12" width="1" height="1" fill="#459425"/><rect x="47" y="14" width="1" height="1" fill="#4CB22C"/><rect x="47" y="15" width="1" height="1" fill="#45AB25"/><rect x="47" y="16" width="1" height="1" fill="#4BB12B"/><rect x="47" y="17" width="1" height="1" fill="#48AE28"/><rect x="47" y="18" width="1" height="1" fill="#46AC26"/><rect x="47" y="19" width="1" height="1" fill="#4DB32D"/><rect x="47" y="20" width="1" height="1" fill="#44AA24"/><rect x="47" y="21" width="1" height="1" fill="#44AA24"/><rect x="47" y="22" width="1" height="1" fill="#459425"/><rect x="48" y="11" width="1" height="1" fill="#48AE28"/><rect x="48" y="12" width="1" height="1" fill="#469526"/><rect x="48" y="14" width="1" height="1" fill="#4CB22C"/><rect x="48" y="15" width="1" height="1" fill="#4AB02A"/><rect x="48" y="16" width="1" height="1" fill="#4BB12B"/><rect x="48" y="17" width="1" height="1" fill="#49AF29"/><rect x="48" y="18" width="1" height="1" fill="#45AB25"/><rect x="48" y="19" width="1" height="1" fill="#47AD27"/><rect x="48" y="20" width="1" height="1" fill="#4AB02A"/><rect x="48" y="21" width="1" height="1" fill="#4AB02A"/><rect x="48" y="22" width="1" height="1" fill="#459425"/><rect x="50" y="16" width="1" height="1" fill="#46AC26"/><rect x="50" y="17" width="1" height="1" fill="#4BB12B"/><rect x="50" y="18" width="1" height="1" fill="#49AF29"/><rect x="50" y="19" width="1" height="1" fill="#4BB12B"/><rect x="50" y="20" width="1" height="1" fill="#489728"/><rect x="51" y="15" width="1" height="1" fill="#44AA24"/><rect x="51" y="16" width="1" height="1" fill="#4BB12B"/><rect x="51" y="17" width="1" height="1" fill="#49AF29"/><rect x="51" y="18" width="1" height="1" fill="#4BB12B"/><rect x="51" y="19" width="1" height="1" fill="#4BB12B"/><rect x="51" y="20" width="1" height="1" fill="#46AC26"/><rect x="51" y="21" width="1" height="1" fill="#4D9C2D"/><rect x="52" y="14" width="1" height="1" fill="#48AE28"/><rect x="52" y="15" width="1" height="1" fill="#46AC26"/><rect x="52" y="16" width="1" height="1" fill="#4B9A2B"/><rect x="52" y="20" width="1" height="1" fill="#49AF29"/><rect x="52" y="21" width="1" height="1" fill="#4BB12B"/><rect x="52" y="22" width="1" height="1" fill="#4D9C2D"/><rect x="53" y="14" width="1" height="1" fill="#46AC26"/><rect x="53" y="15" width="1" height="1" fill="#469526"/><rect x="53" y="21" width="1" height="1" fill="#49AF29"/><rect x="53" y="22" width="1" height="1" fill="#459425"/><rect x="54" y="14" width="1" height="1" fill="#45AB25"/><rect x="54" y="15" width="1" height="1" fill="#489728"/><rect x="54" y="21" width="1" height="1" fill="#4BB12B"/><rect x="54" y="22" width="1" height="1" fill="#499829"/><rect x="55" y="14" width="1" height="1" fill="#44AA24"/><rect x="55" y="15" width="1" height="1" fill="#49AF29"/><rect x="55" y="16" width="1" height="1" fill="#499829"/><rect x="55" y="20" width="1" height="1" fill="#47AD27"/><rect x="55" y="21" width="1" height="1" fill="#4DB32D"/><rect x="55" y="22" width="1" height="1" fill="#4C9B2C"/><rect x="56" y="15" width="1" height="1" fill="#4DB32D"/><rect x="56" y="16" width="1" height="1" fill="#49AF29"/><rect x="56" y="17" width="1" height="1" fill="#4AB02A"/><rect x="56" y="18" width="1" height="1" fill="#48AE28"/><rect x="56" y="19" width="1" height="1" fill="#4CB22C"/><rect x="56" y="20" width="1" height="1" fill="#4BB12B"/><rect x="56" y="21" width="1" height="1" fill="#489728"/><rect x="57" y="16" width="1" height="1" fill="#46AC26"/><rect x="57" y="17" width="1" height="1" fill="#4BB12B"/><rect x="57" y="18" width="1" height="1" fill="#46AC26"/><rect x="57" y="19" width="1" height="1" fill="#4AB02A"/><rect x="57" y="20" width="1" height="1" fill="#4DB32D"/><rect x="57" y="21" width="1" height="1" fill="#4CB22C"/><rect x="57" y="22" width="1" height="1" fill="#4A992A"/><rect x="58" y="20" width="1" height="1" fill="#46AC26"/><rect x="58" y="21" width="1" height="1" fill="#47AD27"/><rect x="58" y="22" width="1" height="1" fill="#4B9A2B"/><rect x="59" y="21" width="1" height="1" fill="#47AD27"/><rect x="59" y="22" width="1" height="1" fill="#4B9A2B"/><rect x="60" y="16" width="1" height="1" fill="#11BE9A"/><rect x="60" y="17" width="1" height="1" fill="#0BB896"/><rect x="60" y="18" width="1" height="1" fill="#10BD99"/><rect x="60" y="19" width="1" height="1" fill="#0F9D79"/><rect x="61" y="16" width="1" height="1" fill="#10BD99"/><rect x="61" y="17" width="1" height="1" fill="#0CB995"/><rect x="61" y="18" width="1" height="1" fill="#10BD99"/><rect x="61" y="19" width="1" height="1" fill="#11BE9A"/><rect x="61" y="20" width="1" height="1" fill="#0F9D79"/><rect x="62" y="19" width="1" height="1" fill="#0CB995"/><rect x="62" y="20" width="1" height="1" fill="#0CB995"/><rect x="62" y="21" width="1" height="1" fill="#0F9D79"/><rect x="63" y="16" width="1" height="1" fill="#11BE9A"/><rect x="63" y="17" width="1" height="1" fill="#0BB896"/><rect x="63" y="18" width="1" height="1" fill="#10BD99"/><rect x="63" y="19" width="1" height="1" fill="#0CB995"/><rect x="63" y="20" width="1" height="1" fill="#0F9D79"/><rect x="64" y="16" width="1" height="1" fill="#11BE9A"/><rect x="64" y="17" width="1" height="1" fill="#0FBC98"/><rect x="64" y="18" width="1" height="1" fill="#10BD99"/><rect x="64" y="19" width="1" height="1" fill="#0F9D79"/><rect x="65" y="12" width="1" height="1" fill="#0EBB97"/><rect x="65" y="22" width="1" height="1" fill="#10A07B"/><rect x="66" y="12" width="1" height="1" fill="#0EBB97"/><rect x="66" y="13" width="1" height="1" fill="#11BE9A"/><rect x="66" y="14" width="1" height="1" fill="#10BD99"/><rect x="66" y="15" width="1" height="1" fill="#0BB995"/><rect x="66" y="16" width="1" height="1" fill="#0BB896"/><rect x="66" y="17" width="1" height="1" fill="#0DBA96"/><rect x="66" y="18" width="1" height="1" fill="#0BB995"/><rect x="66" y="19" width="1" height="1" fill="#10BD99"/><rect x="66" y="20" width="1" height="1" fill="#0CB995"/><rect x="66" y="21" width="1" height="1" fill="#0CB995"/><rect x="66" y="22" width="1" height="1" fill="#10A07B"/><rect x="67" y="12" width="1" height="1" fill="#0CB995"/><rect x="67" y="13" width="1" height="1" fill="#0DBA96"/><rect x="67" y="14" width="1" height="1" fill="#0AB795"/><rect x="67" y="15" width="1" height="1" fill="#10BD99"/><rect x="67" y="16" width="1" height="1" fill="#10BD99"/><rect x="67" y="17" width="1" height="1" fill="#10BD99"/><rect x="67" y="18" width="1" height="1" fill="#11BE9A"/><rect x="67" y="19" width="1" height="1" fill="#12BF9B"/><rect x="67" y="20" width="1" height="1" fill="#10BD99"/><rect x="67" y="21" width="1" height="1" fill="#0FBC98"/><rect x="67" y="22" width="1" height="1" fill="#10A07B"/><rect x="68" y="12" width="1" height="1" fill="#0EBB97"/><rect x="68" y="22" width="1" height="1" fill="#10A07B"/><rect x="69" y="12" width="1" height="1" fill="#0EBB97"/><rect x="69" y="13" width="1" height="1" fill="#11BE9A"/><rect x="69" y="14" width="1" height="1" fill="#10BD99"/><rect x="69" y="15" width="1" height="1" fill="#0BB995"/><rect x="69" y="16" width="1" height="1" fill="#0BB896"/><rect x="69" y="17" width="1" height="1" fill="#0DBA96"/><rect x="69" y="18" width="1" height="1" fill="#0BB995"/><rect x="69" y="19" width="1" height="1" fill="#10BD99"/><rect x="69" y="20" width="1" height="1" fill="#0CB995"/><rect x="69" y="21" width="1" height="1" fill="#0CB995"/><rect x="69" y="22" width="1" height="1" fill="#10A07B"/><rect x="70" y="12" width="1" height="1" fill="#0CB995"/><rect x="70" y="13" width="1" height="1" fill="#0DBA96"/><rect x="70" y="14" width="1" height="1" fill="#0AB795"/><rect x="70" y="15" width="1" height="1" fill="#10BD99"/><rect x="70" y="16" width="1" height="1" fill="#10BD99"/><rect x="70" y="17" width="1" height="1" fill="#10BD99"/><rect x="70" y="18" width="1" height="1" fill="#11BE9A"/><rect x="70" y="19" width="1" height="1" fill="#12BF9B"/><rect x="70" y="20" width="1" height="1" fill="#10BD99"/><rect x="70" y="21" width="1" height="1" fill="#0FBC98"/><rect x="70" y="22" width="1" height="1" fill="#10A07B"/><rect x="71" y="12" width="1" height="1" fill="#0EBB97"/><rect x="71" y="22" width="1" height="1" fill="#10A07B"/></svg>